# xmcd
#
# Track frame offsets: 
#        150
#        12840
#        26785
#        40783
#        53515
#        68278
#        82603
#        95275
#        107703
#        122625
#        137415
#        152903
#        167938
#        180365
#        194298
#        206665
#        221375
#        233328
#        245440
#        257328
#
# Disc length: 3632 seconds
#
# Revision: 3
# Processed by: cddbd v1.5.2PL0 Copyright (c) Steve Scherf et al.
# Submitted via: ExactAudioCopyFreeDBPlugin 1.0
#
DISCID=ed0e2e14
DTITLE=Various Artist - Pop,Various (1940's) CD 2 As Time Goes By 
DYEAR=1900
DGENRE=
TTITLE0=Andrew Sisters - Pennsylvania Polka
TTITLE1=Vaughn Monroe - When the Lights Go On Again (All Over The Worl
TTITLE1=d)
TTITLE2=Anita Day Roy Eldridge and Gene Krupa Orchestra - Let Me Off U
TTITLE2=ptown
TTITLE3=Eddy Duchin - Someone to Watch Over Me
TTITLE4=Jimmy Dorsey - Tangerine
TTITLE5=Charlie Spivak - I Left My Heart At The Stage Door Canteen
TTITLE6=Frank Sinatra and Henry James Orchestra - On a Little Street I
TTITLE6=n Singapore
TTITLE7=Gene Autry - Deep In the heart of Texas
TTITLE8=Mildred Bailey - Fools Rush In (Where Angels Fear To Tread)
TTITLE9=Woody Herman and His Orchestra - Blues In the Night
TTITLE10=Kitty Kallen and Harry James and His Orchestra - It's Been A Lo
TTITLE10=ng, Long Time
TTITLE11=Larry Cotton Donna Wood and Her Don Juans and Horacr Heidt an
TTITLE11=d his Musical Knights  - I Don't Want To Set the World on Fir
TTITLE11=e
TTITLE12=The Merry Macs - Mairzy Doats
TTITLE13=Kate Smith - When You Wish Upon A Star
TTITLE14=Peggy Lee and Benny Goodman Orchestra - There Won't Be a Shorta
TTITLE14=ge of Love
TTITLE15=Freddy Martin and His Orchestra - Piano Concerto In B-Flat
TTITLE16=Bob Willis and his Texas Playboys - New San Antonio Rose
TTITLE17=Al Jennings and Russ Morgan Orchestra - Dance With A Dolly
TTITLE18=Harry Babbit and Kay Kyser Orchestra - (Theer'll Be Bluebirds
TTITLE18=over)The White Cliffs of Dover
TTITLE19=Glenn Miller Tex Beneke Paula Kelly And The Modernaires - Cha
TTITLE19=tanooga Choo Choo
EXTD=
EXTT0=
EXTT1=
EXTT2=
EXTT3=
EXTT4=
EXTT5=
EXTT6=
EXTT7=
EXTT8=
EXTT9=
EXTT10=
EXTT11=
EXTT12=
EXTT13=
EXTT14=
EXTT15=
EXTT16=
EXTT17=
EXTT18=
EXTT19=
PLAYORDER=
